# xmcd CD database file
#
# Track frame offsets:
#	150
#	19807
#	50180
#	81575
#	122085
#	139207
#	163540
#	176677
#	203895
#	215200
#	235537
#	254237
#	287952
#
# Disc length: 3946 seconds
#
# Revision: 0
# Processed by: cddbd v1.5.2PL0 Copyright (c) Steve Scherf et al.
# Submitted via: CDex 1.70beta2
#
DISCID=d20f680d
DTITLE=Jazz Composers Ensemble - Maurice de Martin: Transylvaniana
DYEAR=2003
DGENRE=Jazz
TTITLE0=Transylvaniana First Movement
TTITLE1=Transylvaniana First Movement
TTITLE2=Transylvaniana First Movement
TTITLE3=Transylvaniana First Movement
TTITLE4=Transylvaniana Second  Movement
TTITLE5=Transylvaniana Second  Movement
TTITLE6=Transylvaniana Second  Movement
TTITLE7=Transylvaniana Second  Movement
TTITLE8=Transylvaniana Second  Movement
TTITLE9=Transylvaniana Second  Movement
TTITLE10=Transylvaniana Second  Movement
TTITLE11=Transylvaniana Second  Movement
TTITLE12=Transylvaniana Second  Movement
EXTD=YEAR: 2003
EXTT0=
EXTT1=
EXTT2=
EXTT3=
EXTT4=
EXTT5=
EXTT6=
EXTT7=
EXTT8=
EXTT9=
EXTT10=
EXTT11=
EXTT12=
PLAYORDER=
